<?xml version="1.0" encoding="UTF-8"?>
<svg version="1.1" xmlns="http://www.w3.org/2000/svg" width="534" height="534">
<path d="M0 0 C6.39984696 6.73317232 9.69572712 14.79440436 9.8125 24 C9.83828125 25.21429688 9.8640625 26.42859375 9.890625 27.6796875 C9.42029234 32.61818038 7.4638961 35.10179361 4.25 38.75 C-4.71254389 45.73065458 -18.66004954 44.5029106 -29.4375 44.125 C-28.72207031 44.76824219 -28.00664062 45.41148438 -27.26953125 46.07421875 C-4.70010502 66.4821309 19.61103049 89.85605777 21.5625 122.125 C21.65395 133.44193736 20.37002071 144.01394718 12.40234375 152.58984375 C2.65595728 160.72217896 -9.34752726 161.08519405 -21.4375 160.125 C-38.65617456 157.06573969 -53.23777995 143.72625391 -66.4375 133.125 C-70.46375978 129.90315858 -74.50502979 126.70476704 -78.59228516 123.56054688 C-79.91397312 122.53229532 -81.22500488 121.49028908 -82.52880859 120.43945312 C-90.61053895 113.38803763 -90.61053895 113.38803763 -100.3515625 109.828125 C-103.0743376 110.57148582 -105.0478559 111.62797003 -107.4375 113.125 C-108.36175781 113.56585938 -109.28601563 114.00671875 -110.23828125 114.4609375 C-122.6042798 120.51843611 -129.54026496 130.36182355 -134.57421875 142.97265625 C-142.10667426 166.74582071 -133.85490084 191.23722951 -122.875 212.5 C-111.54956339 233.69827245 -97.07117468 252.85033593 -80.4375 270.125 C-79.68484863 270.91052246 -79.68484863 270.91052246 -78.91699219 271.71191406 C-72.15880706 278.73086517 -65.15551846 285.15332122 -57.4375 291.125 C-56.88175293 291.56247559 -56.32600586 291.99995117 -55.75341797 292.45068359 C-39.5962509 305.1408746 -22.16992798 316.00085117 -4.07910156 325.70703125 C-1.00344465 327.35799385 2.06435661 329.02319335 5.1328125 330.6875 C29.79780154 344.03887834 54.53940561 356.2420766 80.76171875 366.27734375 C81.46088913 366.54548386 82.16005951 366.81362396 82.88041687 367.08988953 C86.32664055 368.41035915 89.77587845 369.72150532 93.23217773 371.01538086 C94.50120796 371.49705228 95.77017264 371.97889642 97.0390625 372.4609375 C98.15361816 372.87907715 99.26817383 373.2972168 100.41650391 373.72802734 C103.80584637 375.23305742 106.54223441 376.98879784 109.5625 379.125 C108.32696885 387.8641228 100.47933459 393.54400628 93.88671875 398.76953125 C47.26955177 432.8904887 -17.15740723 435.55833191 -72.125 427.4375 C-102.15887262 422.70698957 -131.03262686 413.76615764 -159.90316772 404.48353577 C-214.33666349 386.98178508 -269.78325117 370.75369364 -324.18212891 397.89941406 C-328.91769819 400.47275871 -333.39712715 403.49020198 -337.78149414 406.61962891 C-340.79091877 408.71330269 -343.01051579 410.03028904 -346.625 410.83203125 C-350.71640752 409.80349686 -352.11737964 407.24163396 -354.1875 403.8125 C-354.8225647 402.80413086 -354.8225647 402.80413086 -355.47045898 401.77539062 C-356.82914332 399.57821973 -358.14018788 397.35891286 -359.4375 395.125 C-359.86111816 394.39748535 -360.28473633 393.6699707 -360.72119141 392.92041016 C-380.21763113 358.86362354 -389.81352762 319.81077167 -394.4375 281.125 C-394.5420752 280.2577832 -394.64665039 279.39056641 -394.75439453 278.49707031 C-395.86035581 267.58782081 -395.68143743 256.57800728 -395.6875 245.625 C-395.68817474 244.53130096 -395.68884949 243.43760193 -395.68954468 242.3107605 C-395.6729838 225.39962311 -395.15537067 208.85117386 -392.4375 192.125 C-392.26589355 191.04927734 -392.09428711 189.97355469 -391.91748047 188.86523438 C-382.53945562 131.90986633 -359.03446139 81.14144786 -319.4375 39.125 C-318.74785156 38.3928125 -318.05820312 37.660625 -317.34765625 36.90625 C-312.59422738 32.00701042 -307.46513927 27.66464214 -302.10546875 23.44238281 C-300.934465 22.51750924 -299.7681927 21.58662861 -298.60546875 20.65136719 C-274.29320539 1.12603744 -246.87258391 -12.79895723 -217.4375 -22.875 C-216.51420898 -23.19452637 -215.59091797 -23.51405273 -214.63964844 -23.84326172 C-150.91745543 -45.55693383 -53.07735572 -48.9567477 0 0 Z " fill="#6F6CDC" transform="translate(409.4375,72.875)"/>
<path d="M0 0 C4.04952095 3.97382897 6.84700011 7.10280141 7.3125 12.875 C7.27809912 16.03414766 7.14957689 16.79884488 5.1875 19.4375 C0.26576543 22.95302469 -5.2003272 22.4127881 -11 22 C-13.48699771 21.54053318 -15.96639101 21.03841224 -18.4375 20.5 C-29.38600188 18.12477933 -29.38600188 18.12477933 -40.2578125 19.859375 C-42.24789173 20.94294358 -42.24789173 20.94294358 -43.1875 23.5625 C-42.85463465 29.66503133 -38.47616785 33.58986329 -34.2421875 37.7109375 C-32.19961741 39.52360793 -30.10724423 41.26280842 -28 43 C20.22180529 83.58514647 20.22180529 83.58514647 23.24365234 107.96582031 C23.86013157 115.29795134 24.17038601 122.45568945 19.42578125 128.5234375 C14.85449185 133.25753995 10.63768762 136.01162294 4 136.375 C-14.08844264 135.80693321 -27.93559057 123.31439068 -41.21679688 112.44921875 C-86.27746191 75.82817444 -135.49272607 46.59579341 -195.4375 52.6875 C-207.1608768 54.07064648 -220.90841698 57.07107225 -230 65 C-231.55970656 67.38035216 -232.22296737 69.22488346 -233 72 C-232.20078125 71.73445313 -231.4015625 71.46890625 -230.578125 71.1953125 C-229.47984375 70.84210938 -228.3815625 70.48890625 -227.25 70.125 C-226.18265625 69.77695313 -225.1153125 69.42890625 -224.015625 69.0703125 C-213.81226642 66.16117322 -203.62128086 65.63570328 -193.0625 65.625 C-191.79470703 65.60050781 -190.52691406 65.57601562 -189.22070312 65.55078125 C-178.41291848 65.51754357 -167.47801855 66.79009917 -159.26953125 74.4375 C-156.33559511 78.04849832 -155.60149948 81.1122622 -155.7578125 85.79296875 C-156.63966981 93.82924903 -159.97838719 99.66635679 -166 105 C-172.47049711 109.02773012 -179.14236419 111.09531157 -186.5625 112.5625 C-187.54484619 112.76810547 -188.52719238 112.97371094 -189.53930664 113.18554688 C-196.97084187 114.7010616 -204.4396274 115.86913782 -211.9375 117 C-236.36343552 120.78565832 -259.65431025 130.38768897 -279 146 C-279.86109375 146.5878125 -280.7221875 147.175625 -281.609375 147.78125 C-284.79332889 150.73629217 -286.28677436 154.05670971 -288 158 C-285.14522349 157.37768893 -282.29119519 156.75223464 -279.4375 156.125 C-278.63763672 155.95097656 -277.83777344 155.77695313 -277.01367188 155.59765625 C-273.40222064 154.80166292 -269.84995092 153.95699331 -266.29296875 152.9375 C-240.46046479 145.58305047 -206.96542897 147.31429112 -183 160 C-170.46529559 167.48665121 -159.69080324 177.92759029 -155 192 C-154.19846481 201.44666476 -154.52488373 208.97586265 -160 217 C-160.39574219 217.58265625 -160.79148438 218.1653125 -161.19921875 218.765625 C-168.32780958 228.1441033 -179.79894062 231.88758116 -191 234 C-193.98565144 234.28704921 -196.93942836 234.33248923 -199.9375 234.3125 C-201.17584595 234.31056641 -201.17584595 234.31056641 -202.43920898 234.30859375 C-207.95835105 234.22414671 -213.15993084 233.59524407 -218.5625 232.5 C-241.4787528 227.89744929 -264.39716789 232.51462413 -283.92626953 245.32836914 C-290.17125835 249.6248005 -295.64605298 254.65406787 -301 260 C-301.98226562 260.96486328 -301.98226562 260.96486328 -302.984375 261.94921875 C-317.35343199 277.14218956 -324.98622829 299.10719161 -330 319 C-330.24516357 319.95575928 -330.49032715 320.91151855 -330.74291992 321.89624023 C-332.72771726 329.99586071 -333.85794911 338.02152414 -334.6875 346.3125 C-334.88182617 348.15618164 -334.88182617 348.15618164 -335.08007812 350.03710938 C-335.39388362 353.02407281 -335.70041971 356.01158228 -336 359 C-338.41109845 356.83281105 -339.63160975 354.97230876 -340.796875 351.95703125 C-341.11237305 351.14258545 -341.42787109 350.32813965 -341.75292969 349.48901367 C-342.24647949 348.1641394 -342.24647949 348.1641394 -342.75 346.8125 C-343.09708008 345.88993408 -343.44416016 344.96736816 -343.80175781 344.0168457 C-347.79025623 333.18275572 -350.95179347 322.12850249 -354 311 C-354.3091333 309.90510254 -354.3091333 309.90510254 -354.62451172 308.78808594 C-360.01034142 289.68132591 -363.1070366 269.36468976 -363.203125 249.5078125 C-363.21018463 248.53220367 -363.21724426 247.55659485 -363.22451782 246.55142212 C-363.61982422 175.78315192 -348.08580664 104.07909982 -298.0546875 50.93359375 C-296.390369 49.26567283 -294.70079408 47.63057781 -293 46 C-290.60282696 43.6258767 -288.22832559 41.24377619 -285.921875 38.78125 C-252.40780692 3.5794231 -202.6005599 -16.87952993 -156 -27 C-155.31212402 -27.15452637 -154.62424805 -27.30905273 -153.91552734 -27.46826172 C-104.44794049 -38.56507845 -40.7347573 -33.32843779 0 0 Z " fill="#FEFEFE" transform="translate(392,79)"/>
<path d="M0 0 C6.39984696 6.73317232 9.69572712 14.79440436 9.8125 24 C9.83828125 25.21429688 9.8640625 26.42859375 9.890625 27.6796875 C9.42029234 32.61818038 7.4638961 35.10179361 4.25 38.75 C-4.71254389 45.73065458 -18.66004954 44.5029106 -29.4375 44.125 C-28.72207031 44.76824219 -28.00664062 45.41148438 -27.26953125 46.07421875 C-4.70010502 66.4821309 19.61103049 89.85605777 21.5625 122.125 C21.65395 133.44193736 20.37002071 144.01394718 12.40234375 152.58984375 C2.65595728 160.72217896 -9.34752726 161.08519405 -21.4375 160.125 C-38.65617456 157.06573969 -53.23777995 143.72625391 -66.4375 133.125 C-70.46375978 129.90315858 -74.50502979 126.70476704 -78.59228516 123.56054688 C-79.91397312 122.53229532 -81.22500488 121.49028908 -82.52880859 120.43945312 C-90.61053895 113.38803763 -90.61053895 113.38803763 -100.3515625 109.828125 C-103.0743376 110.57148582 -105.0478559 111.62797003 -107.4375 113.125 C-108.36175781 113.56585938 -109.28601563 114.00671875 -110.23828125 114.4609375 C-122.6042798 120.51843611 -129.54026496 130.36182355 -134.57421875 142.97265625 C-138.40248349 155.05503326 -137.48375063 166.5699924 -136.4375 179.125 C-146.6675 179.125 -156.8975 179.125 -167.4375 179.125 C-165.4575 182.425 -163.4775 185.725 -161.4375 189.125 C-157.17650009 199.77749978 -156.33912574 214.31232377 -160.0625 225.3125 C-162.18796215 230.13767197 -164.96693252 234.17544378 -168.4375 238.125 C-168.93894531 238.73085938 -169.44039062 239.33671875 -169.95703125 239.9609375 C-178.13491074 249.07400029 -190.86182379 253.53705948 -202.87077332 254.36038208 C-206.60037805 254.40420867 -210.31791545 254.35851396 -214.046875 254.27734375 C-215.42626887 254.26152145 -216.80568688 254.24769467 -218.18511963 254.23573303 C-223.97250616 254.18145924 -229.7591266 254.08690772 -235.54589844 253.98803711 C-262.39731277 252.52747109 -262.39731277 252.52747109 -286.4375 262.5625 C-286.98744629 262.98861572 -287.53739258 263.41473145 -288.10400391 263.85375977 C-289.27820033 264.77090593 -290.44304747 265.70013743 -291.59863281 266.640625 C-293.56536319 268.22821405 -295.57123147 269.75509855 -297.5859375 271.28125 C-326.61079094 293.57332746 -334.46147593 330.85970207 -341.4375 365.125 C-340.12265631 363.81015631 -339.18489349 362.33865232 -338.13671875 360.80078125 C-332.1799201 352.15134861 -325.9876653 343.94799686 -319.03125 336.078125 C-317.41290089 334.23554679 -315.83219139 332.35834994 -314.3125 330.43359375 C-311.41050446 326.86051174 -307.94852563 324.08315309 -304.4375 321.125 C-303.4784375 320.30128906 -302.519375 319.47757812 -301.53125 318.62890625 C-298.54267351 316.07311868 -295.49466084 313.59825563 -292.4375 311.125 C-291.43783203 310.24134766 -291.43783203 310.24134766 -290.41796875 309.33984375 C-285.1529861 305.22191614 -280.08314178 305.88829638 -273.65234375 306.4921875 C-270.65393499 306.88819036 -267.75664989 307.48985033 -264.81640625 308.1953125 C-256.38356596 310.45039867 -256.38356596 310.45039867 -248.25 308.4921875 C-245.69019637 306.18379315 -243.55720187 303.83856517 -241.4375 301.125 C-239.82650598 299.31715135 -238.25748183 297.73086632 -236.4375 296.125 C-233.9786291 296.35111015 -232.76542494 296.81364023 -230.96826172 298.52001953 C-230.48115723 299.13474121 -229.99405273 299.74946289 -229.4921875 300.3828125 C-226.27894319 304.22738297 -222.87498297 307.78067783 -219.3203125 311.3046875 C-218.77389099 311.84772522 -218.22746948 312.39076294 -217.66448975 312.95025635 C-215.9658525 314.63556466 -214.26459834 316.31818774 -212.5625 318 C-210.29140387 320.24452621 -208.02363825 322.49234251 -205.7578125 324.7421875 C-205.23808868 325.25361298 -204.71836487 325.76503845 -204.18289185 326.29196167 C-200.55025774 329.89948452 -200.55025774 329.89948452 -199.4375 332.125 C-195.03635603 331.62201212 -192.72554981 330.03727269 -189.4375 327.125 C-187.89178722 329.44356917 -186.64131448 331.63138429 -185.4375 334.125 C-183.43795254 334.16754356 -181.43708364 334.16580783 -179.4375 334.125 C-178.04841361 332.95389816 -178.04841361 332.95389816 -178.1875 329.6875 C-178.27 328.511875 -178.3525 327.33625 -178.4375 326.125 C-179.4275 325.465 -180.4175 324.805 -181.4375 324.125 C-180.4375 321.125 -180.4375 321.125 -177.5 319.4375 C-174.4375 318.125 -174.4375 318.125 -172.4375 318.125 C-172.10055697 325.41295302 -172.40250755 332.44150454 -173.625 339.625 C-173.72594971 340.29466797 -173.82689941 340.96433594 -173.9309082 341.65429688 C-174.8527678 346.59243081 -176.49378367 349.06715229 -180.4375 352.125 C-183.02236574 353.49395488 -185.67679374 354.48015115 -188.4375 355.4375 C-189.23696045 355.72310791 -190.0364209 356.00871582 -190.86010742 356.30297852 C-198.73031958 359.03001839 -206.73151076 361.31926808 -214.75 363.5625 C-216.00748047 363.91675049 -217.26496094 364.27100098 -218.56054688 364.63598633 C-219.75357422 364.96107178 -220.94660156 365.28615723 -222.17578125 365.62109375 C-223.23837158 365.91169678 -224.30096191 366.2022998 -225.39575195 366.50170898 C-228.49497471 367.13677726 -231.28323618 367.23865387 -234.4375 367.125 C-234.17066406 366.57328125 -233.90382812 366.0215625 -233.62890625 365.453125 C-233.14701429 362.87617769 -233.14701429 362.87617769 -235.52734375 360.546875 C-236.93693359 359.22429687 -236.93693359 359.22429687 -238.375 357.875 C-239.31214844 356.98296875 -240.24929687 356.0909375 -241.21484375 355.171875 C-241.94832031 354.49640625 -242.68179688 353.8209375 -243.4375 353.125 C-244.21351563 353.90875 -244.98953125 354.6925 -245.7890625 355.5 C-248.4375 358.125 -248.4375 358.125 -250.8125 360.125 C-251.34875 360.785 -251.885 361.445 -252.4375 362.125 C-252.08643743 364.72474467 -252.08643743 364.72474467 -251.4375 367.125 C-253.25616577 367.22989746 -253.25616577 367.22989746 -255.11157227 367.33691406 C-280.54046228 368.82705038 -305.30256669 370.47198464 -330.04174805 376.90600586 C-339.20184785 379.24282608 -339.20184785 379.24282608 -343.4375 377.125 C-345.92448668 393.56965188 -345.92448668 393.56965188 -347.4375 410.125 C-348.0975 410.125 -348.7575 410.125 -349.4375 410.125 C-351.04642578 408.0550551 -352.50262455 406.00033532 -353.9375 403.8125 C-354.59963501 402.80413086 -354.59963501 402.80413086 -355.27514648 401.77539062 C-378.44540613 365.79392023 -389.40521941 323.22682108 -394.4375 281.125 C-394.5420752 280.2577832 -394.64665039 279.39056641 -394.75439453 278.49707031 C-395.86035581 267.58782081 -395.68143743 256.57800728 -395.6875 245.625 C-395.68817474 244.53130096 -395.68884949 243.43760193 -395.68954468 242.3107605 C-395.6729838 225.39962311 -395.15537067 208.85117386 -392.4375 192.125 C-392.26589355 191.04927734 -392.09428711 189.97355469 -391.91748047 188.86523438 C-382.53945562 131.90986633 -359.03446139 81.14144786 -319.4375 39.125 C-318.74785156 38.3928125 -318.05820312 37.660625 -317.34765625 36.90625 C-312.59422738 32.00701042 -307.46513927 27.66464214 -302.10546875 23.44238281 C-300.934465 22.51750924 -299.7681927 21.58662861 -298.60546875 20.65136719 C-274.29320539 1.12603744 -246.87258391 -12.79895723 -217.4375 -22.875 C-216.51420898 -23.19452637 -215.59091797 -23.51405273 -214.63964844 -23.84326172 C-150.91745543 -45.55693383 -53.07735572 -48.9567477 0 0 Z M-187.4375 -17.875 C-188.24928711 -17.66536621 -189.06107422 -17.45573242 -189.89746094 -17.23974609 C-210.8895126 -11.70857467 -231.35397039 -3.19636252 -250.4375 7.125 C-251.40357178 7.63812744 -251.40357178 7.63812744 -252.38916016 8.16162109 C-266.15824401 15.50043886 -278.8610833 24.07659339 -291 33.875 C-291.64259766 34.39352539 -292.28519531 34.91205078 -292.94726562 35.44628906 C-297.37932404 39.09335908 -301.43445377 43.01582847 -305.4375 47.125 C-307.81658063 49.51807522 -310.19341677 51.89638683 -312.65625 54.203125 C-356.11963215 95.58264636 -378.17110598 162.18299596 -380.54536438 220.78744507 C-380.6002226 223.47711628 -380.62774427 226.16527155 -380.640625 228.85546875 C-380.64759399 229.84096207 -380.65456299 230.82645538 -380.66174316 231.84181213 C-380.67901942 234.99875213 -380.68546115 238.15551472 -380.6875 241.3125 C-380.68850708 242.38947144 -380.68951416 243.46644287 -380.69055176 244.5760498 C-380.68078182 259.99243924 -380.27051008 274.93340731 -377.4375 290.125 C-377.16701847 291.7498421 -376.89748695 293.37484262 -376.62890625 295 C-372.46682638 318.82522399 -365.55672092 343.5633803 -354.4375 365.125 C-354.1075 365.125 -353.7775 365.125 -353.4375 365.125 C-353.37804199 364.43277344 -353.31858398 363.74054688 -353.25732422 363.02734375 C-350.24817939 329.37812205 -342.81825133 293.00758269 -319.4375 267.125 C-318.44363281 266.00931641 -318.44363281 266.00931641 -317.4296875 264.87109375 C-302.16469728 248.67668531 -280.84312897 237.78125679 -258.4140625 236.921875 C-250.75030224 236.7881485 -243.51983851 237.08876516 -236 238.625 C-219.26558782 241.96797024 -201.26466055 241.6304483 -186.4375 232.125 C-179.63618091 227.52282263 -175.03215724 220.90897171 -172.4375 213.125 C-171.47105486 199.91163529 -173.74936991 191.2032309 -182.4375 181.125 C-196.77029103 165.27780086 -215.28271456 157.55782285 -236.4375 156.125 C-256.95178388 155.14698997 -276.83655965 156.02789606 -296.4921875 162.2578125 C-299.46388862 163.13276959 -302.37497555 163.67704866 -305.4375 164.125 C-299.52631289 149.07834189 -281.91122381 141.64985614 -268.125 134.9375 C-266.90043091 134.33156006 -266.90043091 134.33156006 -265.65112305 133.71337891 C-252.04975815 127.2554049 -238.09847092 124.25237649 -223.3125 122.0625 C-197.89761078 119.06527445 -197.89761078 119.06527445 -177.65625 105.07421875 C-173.98107717 99.19629811 -172.65249445 92.96576267 -173.4375 86.125 C-176.18812197 80.82750584 -179.78156796 77.30523498 -185.25097656 74.87475586 C-193.69097346 72.20762577 -201.36481143 71.53167217 -210.1875 71.6875 C-211.49992676 71.69998779 -212.81235352 71.71247559 -214.16455078 71.7253418 C-226.96927817 71.95707652 -238.47230091 73.43096036 -250.4375 78.125 C-249.07026574 73.24202051 -247.54596601 70.7725226 -243.25 68 C-221.64839073 56.30824621 -192.01378118 54.93022618 -168.4375 60.125 C-167.38046875 60.28484375 -166.3234375 60.4446875 -165.234375 60.609375 C-130.7665507 66.22747852 -99.39727689 86.97521445 -72.4375 108.125 C-71.02001781 109.22588719 -69.60200252 110.32608815 -68.18359375 111.42578125 C-55.70382098 121.11312594 -55.70382098 121.11312594 -50.81640625 125 C-39.30530513 134.10723762 -26.94302022 143.10532552 -11.56640625 142.47265625 C-6.25449365 141.6052063 -2.07468733 139.17120411 1.4375 135.125 C6.53404236 127.92988137 6.51131178 120.7098648 5.5625 112.125 C-0.1265859 86.77549167 -23.37710777 66.86854354 -42.80078125 51.27734375 C-45.72000552 48.89439179 -48.55870413 46.44128748 -51.375 43.9375 C-52.25027344 43.16019531 -53.12554687 42.38289063 -54.02734375 41.58203125 C-57.53433056 38.00683724 -60.4375 35.01725647 -60.4375 29.875 C-59.4375 27.125 -59.4375 27.125 -57.70703125 25.97265625 C-50.80849162 23.39609325 -42.84177672 25.12501032 -35.875 26.625 C-28.2663228 28.26211292 -21.23599082 29.56580686 -13.8125 26.75 C-11.34441844 25.34353932 -11.34441844 25.34353932 -10.4375 23.125 C-10.06349151 18.6368981 -9.94854046 16.12329239 -11.9375 12.0625 C-33.02377435 -12.71387236 -74.35790603 -22.91453728 -105.28515625 -25.48828125 C-133.23369797 -27.44709915 -160.36854444 -24.97714947 -187.4375 -17.875 Z " fill="#233A9B" transform="translate(409.4375,72.875)"/>
<path d="M0 0 C4.4986495 1.16631654 8.94170615 2.4819294 13.375 3.875 C13.705 2.555 14.035 1.235 14.375 -0.125 C15.39335937 0.55304688 16.41171875 1.23109375 17.4609375 1.9296875 C27.83932521 8.7798953 38.43122526 14.98008421 49.375 20.875 C50.42155762 21.4426709 51.46811523 22.0103418 52.54638672 22.59521484 C78.33358761 36.58093143 104.13973132 49.52817805 131.57421875 60.02734375 C132.27338913 60.29548386 132.97255951 60.56362396 133.69291687 60.83988953 C137.13914055 62.16035915 140.58837845 63.47150532 144.04467773 64.76538086 C145.31370796 65.24705228 146.58267264 65.72889642 147.8515625 66.2109375 C149.523396 66.83814697 149.523396 66.83814697 151.22900391 67.47802734 C154.61834637 68.98305742 157.35473441 70.73879784 160.375 72.875 C159.13946885 81.6141228 151.29183459 87.29400628 144.69921875 92.51953125 C98.08205177 126.6404887 33.65509277 129.30833191 -21.3125 121.1875 C-50.38481735 116.60844014 -78.36613854 108.07909989 -106.33203125 99.140625 C-107.36251083 98.81130981 -108.39299042 98.48199463 -109.45469666 98.1427002 C-114.59071457 96.49993993 -119.72472728 94.8513306 -124.85522461 93.19140625 C-136.37703485 89.47465828 -147.92886403 86.00197815 -159.625 82.875 C-159.625 82.545 -159.625 82.215 -159.625 81.875 C-158.52849121 81.79983154 -157.43198242 81.72466309 -156.30224609 81.6472168 C-131.35215388 80.03071861 -131.35215388 80.03071861 -106.5 77.375 C-105.23615479 77.21584106 -105.23615479 77.21584106 -103.94677734 77.0534668 C-83.64385152 74.13633084 -62.67720719 53.36931616 -46.63671875 41.37744141 C-44.97148447 40.13377008 -43.29915457 38.8996059 -41.625 37.66796875 C-36.12230313 33.47921712 -31.55927466 28.71635931 -26.95239258 23.59057617 C-23.67293637 19.95092698 -20.26717315 16.70181096 -16.5 13.5625 C-13.55580634 10.91272571 -11.03978739 7.91065783 -8.484375 4.890625 C-3.80569307 -0.18122348 -3.80569307 -0.18122348 0 0 Z " fill="#2E47B1" transform="translate(358.625,379.125)"/>
<path d="M0 0 C2.4588709 0.22611015 3.67207506 0.68864023 5.46923828 2.39501953 C6.19989502 3.31710205 6.19989502 3.31710205 6.9453125 4.2578125 C10.15855681 8.10238297 13.56251703 11.65567783 17.1171875 15.1796875 C17.66360901 15.72272522 18.21003052 16.26576294 18.77301025 16.82525635 C20.4716475 18.51056466 22.17290166 20.19318774 23.875 21.875 C26.14609613 24.11952621 28.41386175 26.36734251 30.6796875 28.6171875 C31.19941132 29.12861298 31.71913513 29.64003845 32.25460815 30.16696167 C35.88724226 33.77448452 35.88724226 33.77448452 37 36 C41.40114397 35.49701212 43.71195019 33.91227269 47 31 C48.54571278 33.31856917 49.79618552 35.50638429 51 38 C52.99954746 38.04254356 55.00041636 38.04080783 57 38 C58.38908639 36.82889816 58.38908639 36.82889816 58.25 33.5625 C58.1675 32.386875 58.085 31.21125 58 30 C57.01 29.34 56.02 28.68 55 28 C56 25 56 25 58.9375 23.3125 C62 22 62 22 64 22 C64.33694303 29.28795302 64.03499245 36.31650454 62.8125 43.5 C62.66107544 44.50450195 62.66107544 44.50450195 62.5065918 45.52929688 C61.5847322 50.46743081 59.94371633 52.94215229 56 56 C53.41513426 57.36895488 50.76070626 58.35515115 48 59.3125 C47.20053955 59.59810791 46.4010791 59.88371582 45.57739258 60.17797852 C37.70718042 62.90501839 29.70598924 65.19426808 21.6875 67.4375 C20.43001953 67.79175049 19.17253906 68.14600098 17.87695312 68.51098633 C16.08741211 68.9986145 16.08741211 68.9986145 14.26171875 69.49609375 C12.66783325 69.93199829 12.66783325 69.93199829 11.04174805 70.37670898 C7.94252529 71.01177726 5.15426382 71.11365387 2 71 C2.26683594 70.44828125 2.53367187 69.8965625 2.80859375 69.328125 C3.29048571 66.75117769 3.29048571 66.75117769 0.91015625 64.421875 C-0.02957031 63.54015625 -0.96929687 62.6584375 -1.9375 61.75 C-2.87464844 60.85796875 -3.81179687 59.9659375 -4.77734375 59.046875 C-5.51082031 58.37140625 -6.24429688 57.6959375 -7 57 C-7.77601563 57.78375 -8.55203125 58.5675 -9.3515625 59.375 C-12 62 -12 62 -14.375 64 C-14.91125 64.66 -15.4475 65.32 -16 66 C-15.64893743 68.59974467 -15.64893743 68.59974467 -15 71 C-16.21244385 71.06993164 -17.4248877 71.13986328 -18.67407227 71.21191406 C-44.10296228 72.70205038 -68.86506669 74.34698464 -93.60424805 80.78100586 C-97.48675649 81.77146714 -100.99361603 82.35298537 -105 82 C-105.66 81.34 -106.32 80.68 -107 80 C-106.65362849 71.34071234 -101.98679878 64.54429305 -96.9375 57.8125 C-96.4643335 57.17393066 -95.99116699 56.53536133 -95.50366211 55.87744141 C-91.35139734 50.33697927 -86.94087029 45.03769211 -82.41015625 39.8046875 C-80.86982474 38.01221096 -79.36309515 36.18993294 -77.90234375 34.33203125 C-74.98450759 30.75513559 -71.52116947 27.96669961 -68 25 C-66.56140625 23.76443359 -66.56140625 23.76443359 -65.09375 22.50390625 C-62.10517351 19.94811868 -59.05716084 17.47325563 -56 15 C-55.33355469 14.41089844 -54.66710937 13.82179688 -53.98046875 13.21484375 C-48.7154861 9.09691614 -43.64564178 9.76329638 -37.21484375 10.3671875 C-34.21643499 10.76319036 -31.31914989 11.36485033 -28.37890625 12.0703125 C-19.94606596 14.32539867 -19.94606596 14.32539867 -11.8125 12.3671875 C-9.25269637 10.05879315 -7.11970187 7.71356517 -5 5 C-3.38900598 3.19215135 -1.81998183 1.60586632 0 0 Z " fill="#0C67A9" transform="translate(173,369)"/>
<path d="M0 0 C2.13655723 2.66237661 4 5.49138263 4 9 C4.99 9.495 4.99 9.495 6 10 C5.67 10.99 5.34 11.98 5 13 C5.99 13.495 5.99 13.495 7 14 C6.67 14.33 6.34 14.66 6 15 C6 16.0725 6 17.145 6 18.25 C6 19.4875 6 20.725 6 22 C6.01804688 22.81339844 6.03609375 23.62679688 6.0546875 24.46484375 C4.27928619 28.73238245 0.21463209 29.60684769 -3.875 31.3125 C-14.60587475 36.0909912 -23.13278439 41.5992715 -31.24609375 50.23828125 C-33.09275778 52.09317095 -34.74593258 53.65798298 -37 55 C-40.56536826 54.82759341 -42.29030082 53.06369914 -44.6875 50.5625 C-45.28949219 49.94503906 -45.89148438 49.32757813 -46.51171875 48.69140625 C-48 47 -48 47 -49 45 C-53.97243733 45.47969395 -56.66903747 49.52186999 -59.84570312 52.96289062 C-62.74168011 56.00427232 -64.9790778 57.80008126 -69 59 C-71.65966797 58.85986328 -71.65966797 58.85986328 -74.4921875 58.3203125 C-75.52730469 58.13339844 -76.56242187 57.94648438 -77.62890625 57.75390625 C-78.70011719 57.54636719 -79.77132812 57.33882813 -80.875 57.125 C-91.64791143 54.48463643 -91.64791143 54.48463643 -102.265625 55.99609375 C-102.92046875 56.47175781 -103.5753125 56.94742188 -104.25 57.4375 C-105.00023437 57.97890625 -105.75046875 58.5203125 -106.5234375 59.078125 C-114.42711831 65.06172115 -114.42711831 65.06172115 -121.6953125 71.76953125 C-123 73 -123 73 -125 73 C-125.495 74.485 -125.495 74.485 -126 76 C-127.1114136 77.14614527 -128.2299391 78.28590674 -129.375 79.3984375 C-135.88318045 85.81274996 -141.44443933 92.74995489 -146.8125 100.125 C-147.36357422 100.87676514 -147.91464844 101.62853027 -148.48242188 102.40307617 C-151.84484735 107.09004684 -154.55337171 111.77499722 -157 117 C-158.80935166 111.58068201 -156.84767416 106.34196983 -155.625 100.9375 C-155.35534424 99.74318359 -155.08568848 98.54886719 -154.80786133 97.31835938 C-145.88229436 59.25322149 -133.06692843 31.85018237 -101 9 C-100.41105957 8.54802246 -99.82211914 8.09604492 -99.21533203 7.63037109 C-89.07350134 0.41702435 -75.90254393 0.57719449 -63.94921875 0.77734375 C-62.55590461 0.78806415 -61.16257667 0.79710699 -59.76924133 0.80458069 C-56.1443971 0.82708233 -52.51995814 0.86601874 -48.89532471 0.9105835 C-43.07978533 0.98148314 -37.26425869 1.03636162 -31.44840431 1.07293892 C-29.43830141 1.0894208 -27.42832301 1.11935497 -25.41838074 1.14964294 C-17.83136094 1.21003482 -6.78718429 -2.68330542 0 0 Z " fill="#8B77EE" transform="translate(225,325)"/>
<path d="M0 0 C4.37823917 -0.04938149 8.75633146 -0.0857104 13.13476562 -0.10986328 C14.6247032 -0.11993043 16.11462097 -0.13358518 17.60449219 -0.15087891 C19.74419028 -0.17509653 21.88362753 -0.18647564 24.0234375 -0.1953125 C25.31169434 -0.20578613 26.59995117 -0.21625977 27.92724609 -0.22705078 C31 0 31 0 33 2 C33.69506836 3.8215332 33.69506836 3.8215332 34.33984375 6.05078125 C39.49746082 23.070095 46.56079355 39.24540295 57.734375 53.234375 C59.63110778 57.37908738 58.82399471 60.61080048 58 65 C57.81920898 65.99580078 57.63841797 66.99160156 57.45214844 68.01757812 C56.83096354 71.3099578 56.17108249 74.59244796 55.5 77.875 C55.27441406 79.00164062 55.04882812 80.12828125 54.81640625 81.2890625 C52.51968246 92.6503707 52.51968246 92.6503707 49.015625 95.0078125 C47.76584559 95.72311178 46.5103483 96.42849173 45.25 97.125 C44.31800781 97.66447266 44.31800781 97.66447266 43.3671875 98.21484375 C38.70364177 100.84177774 35.13170613 102.04179816 29.8125 101.9375 C25.01805407 102.01609747 20.66369142 102.94358371 16 104 C14.88109375 104.25265625 13.7621875 104.5053125 12.609375 104.765625 C8.06288339 105.80540559 3.52327348 106.86341679 -1 108 C0.4804399 94.12172875 2.0292941 80.24988013 3.75036621 66.39920044 C3.99495795 64.41588439 4.2304854 62.43145721 4.46582031 60.44702148 C5.23673692 54.34073949 6.25491689 48.86366508 8.38037109 43.09667969 C9.51637813 39.25269686 9.39313352 35.41434536 9.3125 31.4375 C9.31572266 30.63892578 9.31894531 29.84035156 9.32226562 29.01757812 C9.25330193 21.32499161 7.85995213 14.92409469 3.9375 8.1875 C2.34094684 5.41988095 1.01203302 3.03609906 0 0 Z " fill="#C7ADF2" transform="translate(241,251)"/>
<path d="M0 0 C3.05666664 2.90656248 5.53005241 5.96011034 8 9.375 C17.56994258 22.32268729 28.48832141 33.77139547 40 45 C37.59468529 48.12530914 35.21352938 50.84817303 32.1875 53.375 C29.58939634 55.5876707 27.15674934 57.83412694 24.8125 60.3125 C9.32947164 75.86495898 -12.91046282 88.92415147 -34.8125 91.4375 C-38 91 -38 91 -41 89.1875 C-44.04420416 84.33579962 -43.17969735 80.44589848 -42 75 C-40.21565762 68.02806621 -36.37023003 61.90364792 -32.75 55.75 C-32.30865723 54.98099365 -31.86731445 54.2119873 -31.41259766 53.41967773 C-28.07613334 47.9282893 -24.37415662 44.48061467 -19 41 C-18.04351562 40.37351562 -17.08703125 39.74703125 -16.1015625 39.1015625 C-15.28429687 38.61429687 -14.46703125 38.12703125 -13.625 37.625 C-12.79226563 37.12226563 -11.95953125 36.61953125 -11.1015625 36.1015625 C-9 35 -9 35 -7 35 C-6.90203125 34.35417969 -6.8040625 33.70835937 -6.703125 33.04296875 C-4.94464291 21.96149969 -2.769629 10.87731016 0 0 Z " fill="#1A6DAE" transform="translate(300,309)"/>
<path d="M0 0 C0.33 0 0.66 0 1 0 C0.36031345 10.35671625 -0.85523442 20.61510495 -2.15673828 30.90576172 C-2.50366871 33.65406264 -2.84390304 36.4031396 -3.18359375 39.15234375 C-3.40325053 40.90629955 -3.62328836 42.66020768 -3.84375 44.4140625 C-3.94482056 45.23274811 -4.04589111 46.05143372 -4.15002441 46.89492798 C-4.55377115 50.05916488 -4.98849487 52.96548462 -6 56 C-5.01 55.525625 -4.02 55.05125 -3 54.5625 C0.37311185 53.10716545 3.40700504 52.58674809 7.04296875 52.24609375 C9.25747348 52.02305601 9.25747348 52.02305601 12.3125 51 C18.32038446 49.3707432 24.93887164 48.11210756 31 50 C30.195625 51.010625 29.39125 52.02125 28.5625 53.0625 C21.72851083 62.21227223 16.00011928 72.01043589 11.97265625 82.70703125 C11 85 11 85 9 87 C7.824375 87.165 6.64875 87.33 5.4375 87.5 C4.303125 87.665 3.16875 87.83 2 88 C1.67 88.66 1.34 89.32 1 90 C-1.95820059 90.90591398 -4.96010437 91.40058396 -8 92 C-8 88.37 -8 84.74 -8 81 C-17.28810213 85.32580391 -25.63003549 89.76673325 -33.546875 96.3125 C-36 98 -36 98 -40 98 C-42.29003906 96.1640625 -42.29003906 96.1640625 -44.765625 93.625 C-45.65507812 92.72265625 -46.54453125 91.8203125 -47.4609375 90.890625 C-48.39084511 89.92729576 -49.3205298 88.96375129 -50.25 88 C-51.194385 87.03554925 -52.13968755 86.07199606 -53.0859375 85.109375 C-55.39981814 82.7482723 -57.7038764 80.37835393 -60 78 C-56.15082688 74.13191447 -52.14568128 70.54621866 -48 67 C-47.28070313 66.35675781 -46.56140625 65.71351563 -45.8203125 65.05078125 C-37.21272311 57.67491762 -26.83055334 52.32989062 -16 49 C-15.39253309 37.28938781 -16.37013724 29.12057124 -24 20 C-23.23816406 19.67128906 -22.47632813 19.34257812 -21.69140625 19.00390625 C-12.04680837 14.56088925 -5.42238177 9.15529741 0 0 Z " fill="#8395D6" transform="translate(246,303)"/>
<path d="M0 0 C2.6755118 1.55352298 4.1495043 3.63457742 5.9375 6.125 C-1.34138591 23.03204186 -26.39002472 35.52695485 -42.42138672 42.09082031 C-56.47180057 47.44420211 -70.84952914 50.1675251 -85.80639648 51.39160156 C-89.61322491 51.72765043 -91.82600777 51.96733852 -95.0625 54.125 C-93.37238226 50.05877555 -90.54079582 46.97254453 -87.6875 43.6875 C-86.72072916 42.56433976 -85.75457366 41.44064954 -84.7890625 40.31640625 C-84.09055176 39.50610962 -84.09055176 39.50610962 -83.37792969 38.67944336 C-82.1968902 37.28380891 -81.06015956 35.85096288 -79.9296875 34.4140625 C-77.02560827 30.85383147 -73.5671017 28.07774072 -70.0625 25.125 C-69.1034375 24.30128906 -68.144375 23.47757812 -67.15625 22.62890625 C-64.16767351 20.07311868 -61.11966084 17.59825563 -58.0625 15.125 C-57.39605469 14.53589844 -56.72960937 13.94679688 -56.04296875 13.33984375 C-50.7779861 9.22191614 -45.70814178 9.88829638 -39.27734375 10.4921875 C-36.27893499 10.88819036 -33.38164989 11.48985033 -30.44140625 12.1953125 C-22.00856596 14.45039867 -22.00856596 14.45039867 -13.875 12.4921875 C-11.31519637 10.18379315 -9.18220187 7.83856517 -7.0625 5.125 C-2.63802677 0.15988041 -2.63802677 0.15988041 0 0 Z " fill="#4F70CE" transform="translate(175.0625,368.875)"/>
<path d="M0 0 C0.928125 0.433125 0.928125 0.433125 1.875 0.875 C2.73919223 3.46757669 3.05080932 5.21537707 3.19140625 7.88671875 C3.23330078 8.64404297 3.27519531 9.40136719 3.31835938 10.18164062 C3.35767578 10.96732422 3.39699219 11.75300781 3.4375 12.5625 C3.48068359 13.35978516 3.52386719 14.15707031 3.56835938 14.97851562 C3.67427368 16.94381447 3.77512551 18.90938496 3.875 20.875 C4.4097998 21.02122803 4.94459961 21.16745605 5.49560547 21.31811523 C7.91433339 21.98075521 10.33217096 22.64658806 12.75 23.3125 C13.59175781 23.54259766 14.43351562 23.77269531 15.30078125 24.00976562 C16.50927734 24.34331055 16.50927734 24.34331055 17.7421875 24.68359375 C18.85762939 24.98994751 18.85762939 24.98994751 19.99560547 25.30249023 C21.875 25.875 21.875 25.875 23.875 26.875 C23.76953125 28.6171875 23.76953125 28.6171875 22.875 30.875 C20.78051556 32.4232242 18.80798897 33.71756004 16.5625 35 C15.68948242 35.52013672 15.68948242 35.52013672 14.79882812 36.05078125 C11.87747638 37.77778647 8.91762085 39.37535479 5.875 40.875 C5.83741577 41.81351807 5.83741577 41.81351807 5.79907227 42.77099609 C5.68324727 45.59754619 5.56046015 48.42375169 5.4375 51.25 C5.39818359 52.23484375 5.35886719 53.2196875 5.31835938 54.234375 C5.25551758 55.64589844 5.25551758 55.64589844 5.19140625 57.0859375 C5.15474854 57.95524902 5.11809082 58.82456055 5.08032227 59.72021484 C4.875 61.875 4.875 61.875 3.875 63.875 C1.19646013 63.78179074 -0.57168128 63.41879216 -2.51464844 61.50927734 C-3.48804478 60.32863962 -4.45816147 59.14529272 -5.42553711 57.9597168 C-8.01894094 54.83468328 -10.56527405 51.90225884 -14.125 49.875 C-18.76886042 49.91152988 -21.43030063 50.80623951 -25.71484375 52.54296875 C-29.15286964 53.88588608 -31.47869418 54.12550956 -35.125 53.875 C-36.11378778 50.70742984 -36.27453423 49.24620294 -35.015625 46.12109375 C-34.47421875 45.19425781 -33.9328125 44.26742187 -33.375 43.3125 C-32.84390625 42.38308594 -32.3128125 41.45367187 -31.765625 40.49609375 C-30.3198819 38.18634704 -28.80134382 36.02092205 -27.125 33.875 C-29.07677848 29.4631674 -32.1436139 26.15096384 -35.25 22.5078125 C-37.25086686 19.69826195 -38.19980392 17.18064849 -39.125 13.875 C-38.795 13.545 -38.465 13.215 -38.125 12.875 C-29.79194555 12.92596669 -22.03983616 14.35303818 -14.125 16.875 C-13.86589844 16.14539063 -13.60679687 15.41578125 -13.33984375 14.6640625 C-12.08688144 11.78748664 -10.6410457 9.695083 -8.6875 7.25 C-8.09066406 6.49460937 -7.49382812 5.73921875 -6.87890625 4.9609375 C-2.58002257 -0.15176603 -2.58002257 -0.15176603 0 0 Z " fill="#FEC6B1" transform="translate(408.125,276.125)"/>
<path d="M0 0 C3.54022535 1.45180294 5.24058755 3.25715817 7.5 6.3125 C8.0671875 7.07175781 8.634375 7.83101563 9.21875 8.61328125 C10.10046875 9.79470703 10.10046875 9.79470703 11 11 C12.32762464 12.67121763 13.65950907 14.3390847 15 16 C16.28583984 15.566875 16.28583984 15.566875 17.59765625 15.125 C28.9543058 11.43760984 28.9543058 11.43760984 35 12 C34.484897 17.31455478 32.63835295 20.90623121 29.9375 25.375 C29.56044922 26.01566406 29.18339844 26.65632813 28.79492188 27.31640625 C27.87160383 28.88254066 26.93694607 30.44198034 26 32 C26.47050781 32.72445312 26.94101562 33.44890625 27.42578125 34.1953125 C36 47.50931677 36 47.50931677 36 53 C30.0576357 53.28296973 25.67076277 52.86830511 20.140625 50.65625 C17.55429487 49.86336047 15.69002959 49.64447061 13 50 C11.06517446 51.54676502 11.06517446 51.54676502 9.5 53.6875 C8.90445313 54.41195312 8.30890625 55.13640625 7.6953125 55.8828125 C7.13585937 56.58148438 6.57640625 57.28015625 6 58 C4.38936071 59.95642625 2.98693846 61.37907652 1 63 C-0.65 62.67 -2.3 62.34 -4 62 C-4 55.07 -4 48.14 -4 41 C-6.97 40.34 -9.94 39.68 -13 39 C-16.28515625 37.7109375 -16.28515625 37.7109375 -19.0625 36.375 C-20.47208984 35.70597656 -20.47208984 35.70597656 -21.91015625 35.0234375 C-22.59980469 34.68570313 -23.28945313 34.34796875 -24 34 C-23.78125 32.16015625 -23.78125 32.16015625 -23 30 C-21.03125 28.62109375 -21.03125 28.62109375 -18.5 27.4375 C-17.6853125 27.04433594 -16.870625 26.65117187 -16.03125 26.24609375 C-12.08515334 24.62392257 -8.06031041 23.30486048 -4 22 C-3.9498877 21.44014404 -3.89977539 20.88028809 -3.84814453 20.3034668 C-3.61586413 17.76392044 -3.37058215 15.22579309 -3.125 12.6875 C-3.04636719 11.80642578 -2.96773438 10.92535156 -2.88671875 10.01757812 C-2.80292969 9.17001953 -2.71914063 8.32246094 -2.6328125 7.44921875 C-2.52283936 6.27879028 -2.52283936 6.27879028 -2.41064453 5.0847168 C-2 3 -2 3 0 0 Z " fill="#FBF4B3" transform="translate(363,421)"/>
<path d="M0 0 C3.62928623 1.26806387 5.9505705 2.63294848 8.6875 5.3125 C14.01147423 10.26461231 19.94092171 14.29963912 25.9675293 18.34301758 C26.73105713 18.87306396 27.49458496 19.40311035 28.28125 19.94921875 C28.97283203 20.41674561 29.66441406 20.88427246 30.37695312 21.3659668 C32.45588009 23.45896592 32.66615529 25.11876178 33 28 C32.34773438 27.86722656 31.69546875 27.73445313 31.0234375 27.59765625 C29.21449731 27.23213294 27.40312735 26.87848484 25.58984375 26.53515625 C23 26 23 26 19.9375 25 C14.9766077 25 11.69431289 27.89035228 8 31 C6.06192371 32.98662155 4.262758 35.01879637 2.5078125 37.16796875 C-0.37902201 40.67554747 -2.5753781 42.66232361 -7 44 C-8.03125 43.979375 -9.0625 43.95875 -10.125 43.9375 C-13.01456793 43.66149133 -13.01456793 43.66149133 -14.4375 45.5 C-16 47 -16 47 -19.5 47.4375 C-23 47 -23 47 -24.9375 45.3125 C-26.74288141 41.38314047 -26.20069499 38.05234558 -25 34 C-26.0828125 33.814375 -26.0828125 33.814375 -27.1875 33.625 C-29.95721894 33.0095069 -32.3970354 32.11555626 -35 31 C-32.12137524 27.93565751 -29.16067673 25.29675145 -25.8125 22.75 C-21.38783256 19.38340521 -17.31995261 15.71480269 -13.26171875 11.91796875 C-11.21371652 10.18123457 -9.39132864 9.15863047 -7 8 C-6.690625 7.38125 -6.38125 6.7625 -6.0625 6.125 C-4.63101256 3.26202511 -2.54558673 1.87569549 0 0 Z " fill="#8B80E4" transform="translate(339,355)"/>
<path d="M0 0 C-1.37566045 4.71145884 -3.34345053 8.52832571 -5.9375 12.6875 C-6.62714844 13.80511719 -7.31679687 14.92273438 -8.02734375 16.07421875 C-10.80398456 20.19244442 -12.65019408 22.13799445 -17.4296875 23.5859375 C-30.2348366 27.76721068 -38.42690756 32.565958 -47 43 C-47.43570313 42.62488281 -47.87140625 42.24976563 -48.3203125 41.86328125 C-49.21363281 41.09564453 -49.21363281 41.09564453 -50.125 40.3125 C-50.75921875 39.76207031 -51.3934375 39.21164062 -52.046875 38.64453125 C-53.25647515 37.62604792 -54.49253695 36.63713539 -55.765625 35.69921875 C-58.64167247 33.55614454 -59.91252079 32.27883999 -61 28.8125 C-61 26 -61 26 -59 24 C-56.375 23.875 -56.375 23.875 -54 24 C-54.03996094 22.99710937 -54.07992187 21.99421875 -54.12109375 20.9609375 C-53.99532971 16.84723629 -53.24074829 13.55808504 -52.0625 9.625 C-51.52302734 7.78808594 -51.52302734 7.78808594 -50.97265625 5.9140625 C-50 3 -50 3 -49 2 C-46.33306391 1.85203815 -43.68880017 1.76489079 -41.01953125 1.71875 C-39.81111824 1.69113586 -39.81111824 1.69113586 -38.57829285 1.66296387 C-35.98977178 1.60403539 -33.4011817 1.55135607 -30.8125 1.5 C-28.24167783 1.4484728 -25.67094112 1.39544191 -23.1002655 1.33703613 C-21.49871916 1.30065431 -19.89707834 1.2681609 -18.29536438 1.2401123 C-12.12686462 1.1002074 -6.16909844 -0.1468833 0 0 Z " fill="#CBB1F3" transform="translate(222,325)"/>
<path d="M0 0 C2.75 0.0625 2.75 0.0625 6 1 C8.17077679 3.61808837 10 6.51487998 10 10 C10.66 10.33 11.32 10.66 12 11 C11.67 11.99 11.34 12.98 11 14 C11.66 14.33 12.32 14.66 13 15 C12.67 15.33 12.34 15.66 12 16 C12 17.0725 12 18.145 12 19.25 C12 20.4875 12 21.725 12 23 C12.01804688 23.81339844 12.03609375 24.62679688 12.0546875 25.46484375 C10.27928619 29.73238245 6.21463209 30.60684769 2.125 32.3125 C-8.60587475 37.0909912 -17.13278439 42.5992715 -25.24609375 51.23828125 C-27.09275778 53.09317095 -28.74593258 54.65798298 -31 56 C-34.47898383 55.81194682 -36.24090087 54.16560705 -38.625 51.75 C-39.21539062 51.16734375 -39.80578125 50.5846875 -40.4140625 49.984375 C-42.18415192 47.76958331 -43.07163805 45.66559371 -44 43 C-34.98915466 32.41305274 -26.41126021 26.81790534 -13 23 C-12.01 23 -11.02 23 -10 23 C-9.505 21.515 -9.505 21.515 -9 20 C-8.34 20 -7.68 20 -7 20 C-6.731875 19.27941406 -6.46375 18.55882812 -6.1875 17.81640625 C-4.9998639 14.99967722 -3.60600761 12.53521731 -2 9.9375 C-0.19462309 7.00827597 1.50962629 4.1025568 3 1 C2.01 0.67 1.02 0.34 0 0 Z " fill="#939BDD" transform="translate(219,324)"/>
<path d="M0 0 C2.125 0 2.125 0 5 1 C5.82590654 2.31239943 6.61294542 3.64952353 7.375 5 C9.63454635 8.3652818 10.65273438 8.92996324 14.71875 9.75 C18.48244825 10.0573136 22.22621376 10.07682008 26 10 C26.6875 12.2578125 26.6875 12.2578125 27 15 C25.75 16.9921875 25.75 16.9921875 24 18.875 C21.26249845 22.2266651 21.26249845 22.2266651 21 26.625 C21.6457685 28.80446868 22.33077461 30.97286649 23.0625 33.125 C23.98403073 35.95102756 24.17325184 38.05471874 24 41 C22.66658348 40.85492922 21.33327236 40.7088897 20 40.5625 C19.175 40.48 18.35 40.3975 17.5 40.3125 C15 40 15 40 12.9375 39.5 C9.53568208 38.73184757 7.76867169 38.57366719 4.640625 40.30859375 C3.08553602 41.40884461 1.56147135 42.55478567 0.078125 43.75 C-2 45 -2 45 -4.265625 44.6875 C-4.83796875 44.460625 -5.4103125 44.23375 -6 44 C-5.81179688 43.07058594 -5.62359375 42.14117187 -5.4296875 41.18359375 C-4.84924696 37.26357631 -4.52186533 33.94138042 -5 30 C-7.86197042 26.68867347 -11.14106285 24.96999053 -15 23 C-15.66 22.34 -16.32 21.68 -17 21 C-16.8984375 19.015625 -16.8984375 19.015625 -16 17 C-14.0390625 15.734375 -14.0390625 15.734375 -11.625 14.75 C-10.83351563 14.41484375 -10.04203125 14.0796875 -9.2265625 13.734375 C-7 13 -7 13 -4 13 C-3.87882812 12.39671875 -3.75765625 11.7934375 -3.6328125 11.171875 C-3.46523438 10.37265625 -3.29765625 9.5734375 -3.125 8.75 C-2.96257812 7.96109375 -2.80015625 7.1721875 -2.6328125 6.359375 C-2.00849925 4.03168856 -1.15161458 2.10968048 0 0 Z " fill="#FEE163" transform="translate(340,235)"/>
<path d="M0 0 C0.66 0 1.32 0 2 0 C3.15759895 1.15759895 4.31095406 2.31978273 5.44140625 3.50390625 C7.20960146 5.20119639 9.0850571 6.61532112 11.0625 8.0625 C13.9492121 10.19069985 16.69879474 12.21937698 19 15 C19 15.99 19 16.98 19 18 C12.04498846 20.72382581 5.36251532 22.71956255 -2 24 C-2.99 27.63 -3.98 31.26 -5 35 C-9.0481181 33.38075276 -12.76287168 31.62145008 -16.625 29.625 C-25.46930868 25.14067636 -34.25175377 21.91768778 -44 20 C-43.08552154 18.91481889 -42.16829593 17.83195262 -41.25 16.75 C-40.73953125 16.14671875 -40.2290625 15.5434375 -39.703125 14.921875 C-38.86007813 13.97054687 -38.86007813 13.97054687 -38 13 C-37.46761719 12.29230469 -36.93523437 11.58460938 -36.38671875 10.85546875 C-32.76593517 8.04062063 -29.03485985 8.02628799 -24.5625 7.5625 C-11.3356668 6.16297129 -11.3356668 6.16297129 0 0 Z " fill="#F9C3B1" transform="translate(229,199)"/>
<path d="M0 0 C3.33559523 0.30731012 3.95522979 0.9490117 6.25 3.5625 C6.8275 4.366875 7.405 5.17125 8 6 C0.72111409 22.90704186 -24.32752472 35.40195485 -40.35888672 41.96582031 C-54.40930057 47.31920211 -68.78702914 50.0425251 -83.74389648 51.26660156 C-87.55072491 51.60265043 -89.76350777 51.84233852 -93 54 C-90.48806766 48.64206184 -87.30367767 43.207188 -81.51855469 41.09326172 C-78.6380269 40.55892848 -75.79099615 40.21884752 -72.875 39.9375 C-57.33078265 37.8908885 -42.00650151 34.10224085 -29 25 C-27.06500908 23.78765275 -25.12742115 22.57944246 -23.1875 21.375 C-18.04716559 18.14046166 -13.47718754 14.80009447 -9.5625 10.125 C-3.27031638 2.83427419 -3.27031638 2.83427419 0 0 Z " fill="#436EC7" transform="translate(173,369)"/>
<path d="M0 0 C1.21236328 0.01353516 1.21236328 0.01353516 2.44921875 0.02734375 C3.37154297 0.04474609 3.37154297 0.04474609 4.3125 0.0625 C4.3125 1.0525 4.3125 2.0425 4.3125 3.0625 C3.75433594 3.619375 3.19617188 4.17625 2.62109375 4.75 C-0.46197186 7.83828231 -2.44391895 11.30411889 -4.625 15.0625 C-5.06521484 15.81345947 -5.50542969 16.56441895 -5.95898438 17.33813477 C-9.04320005 22.69724507 -11.58134797 28.04348337 -13.75 33.83984375 C-14.6875 36.0625 -14.6875 36.0625 -16.6875 38.0625 C-18.4509375 38.31 -18.4509375 38.31 -20.25 38.5625 C-21.9515625 38.81 -21.9515625 38.81 -23.6875 39.0625 C-24.0175 39.7225 -24.3475 40.3825 -24.6875 41.0625 C-26.75390625 41.6953125 -26.75390625 41.6953125 -29.25 42.1875 C-30.48943359 42.43886719 -30.48943359 42.43886719 -31.75390625 42.6953125 C-32.39199219 42.81648438 -33.03007812 42.93765625 -33.6875 43.0625 C-33.78631261 34.29013588 -33.78174714 25.51727471 -33.4375 16.75 C-33.42340088 16.03980713 -33.40930176 15.32961426 -33.39477539 14.59790039 C-33.23634098 11.3229308 -32.88721039 9.34128124 -30.9609375 6.65234375 C-28.38538306 4.85122578 -26.66242145 4.36227058 -23.5625 3.9375 C-22.12003906 3.71900391 -22.12003906 3.71900391 -20.6484375 3.49609375 C-19.18277344 3.28146484 -19.18277344 3.28146484 -17.6875 3.0625 C-15.85173908 2.7211395 -14.01815856 2.36774226 -12.1875 2 C-11.3934375 1.84402344 -10.599375 1.68804687 -9.78125 1.52734375 C-2.72396965 -0.03947782 -2.72396965 -0.03947782 0 0 Z " fill="#9B8AEA" transform="translate(271.6875,351.9375)"/>
<path d="M0 0 C1.65 1.65 3.3 3.3 5 5 C-19.62886651 31.2799637 -53.13430797 48.33480707 -89.44287109 50.12011719 C-93.96743801 50.23330094 -98.47663615 50.17057378 -103 50 C-101.84279706 46.52839117 -101.07339858 45.84901497 -98 44 C-95.55249023 43.46337891 -95.55249023 43.46337891 -92.80859375 43.2265625 C-91.79079834 43.12698242 -90.77300293 43.02740234 -89.72436523 42.92480469 C-88.63969971 42.82586914 -87.55503418 42.72693359 -86.4375 42.625 C-52.50859612 38.99927138 -23.45335599 24.91243574 0 0 Z " fill="#276AB8" transform="translate(181,376)"/>
<path d="M0 0 C0 5.28 0 10.56 0 16 C-1.01578125 16.47308594 -2.0315625 16.94617188 -3.078125 17.43359375 C-11.30193366 21.35503932 -18.51656878 25.49973285 -25.546875 31.3125 C-28 33 -28 33 -32 33 C-34.359375 31.03125 -34.359375 31.03125 -36.75 28.5 C-37.54921875 27.6646875 -38.3484375 26.829375 -39.171875 25.96875 C-39.77515625 25.3190625 -40.3784375 24.669375 -41 24 C-40.27167969 23.41992188 -39.54335937 22.83984375 -38.79296875 22.2421875 C-37.07680714 20.86445776 -35.3690159 19.47612412 -33.67578125 18.0703125 C-25.44259641 11.29324465 -11.35945651 0 0 0 Z " fill="#5483C4" transform="translate(238,368)"/>
<path d="M0 0 C3.62928623 1.26806387 5.9505705 2.63294848 8.6875 5.3125 C14.01147423 10.26461231 19.94092171 14.29963912 25.9675293 18.34301758 C26.73105713 18.87306396 27.49458496 19.40311035 28.28125 19.94921875 C28.97283203 20.41674561 29.66441406 20.88427246 30.37695312 21.3659668 C32.45588009 23.45896592 32.66615529 25.11876178 33 28 C32.34773438 27.86722656 31.69546875 27.73445313 31.0234375 27.59765625 C30.14945312 27.42105469 29.27546875 27.24445313 28.375 27.0625 C27.51648438 26.88847656 26.65796875 26.71445312 25.7734375 26.53515625 C24.85820312 26.35855469 23.94296875 26.18195313 23 26 C22.00742187 25.7421875 21.01484375 25.484375 19.9921875 25.21875 C16.08041012 24.9327715 14.78990857 26.0456701 11.75 28.4375 C7.14872798 32 7.14872798 32 5 32 C5.19142578 30.38931641 5.19142578 30.38931641 5.38671875 28.74609375 C5.94878622 22.32477892 5.94878622 22.32477892 5 16 C2.30441183 13.27001836 -0.10879593 11.92584425 -3.59375 10.359375 C-4.3878125 9.91078125 -5.181875 9.4621875 -6 9 C-6 5 -6 5 -4.6875 3.515625 C-3.125 2.34375 -1.5625 1.171875 0 0 Z " fill="#F6DB69" transform="translate(339,355)"/>
<path d="M0 0 C1.32 0.66 2.64 1.32 4 2 C-3.27888591 18.90704186 -28.32752472 31.40195485 -44.35888672 37.96582031 C-58.40930057 43.31920211 -72.78702914 46.0425251 -87.74389648 47.26660156 C-91.55072491 47.60265043 -93.76350777 47.84233852 -97 50 C-95.48278175 46.13798991 -93.46729298 44.24893111 -90 42 C-87.14429145 41.35041982 -84.2940434 41.22076856 -81.375 41.0625 C-54.92560226 38.92072389 -30.9827305 28.36314566 -11 11 C-10.07832031 10.19949219 -9.15664062 9.39898437 -8.20703125 8.57421875 C-3.51275514 4.76812552 -3.51275514 4.76812552 0 0 Z " fill="#376DC1" transform="translate(177,373)"/>
<path d="M0 0 C4.73392914 1.98382282 8.89552838 5.11016739 13.171875 7.91015625 C12.841875 13.19015625 12.511875 18.47015625 12.171875 23.91015625 C12.831875 24.24015625 13.491875 24.57015625 14.171875 24.91015625 C11.671875 26.22265625 11.671875 26.22265625 8.171875 26.91015625 C5.90789116 25.87835947 4.02111937 24.6241093 2.00390625 23.171875 C0.08952975 21.72845586 0.08952975 21.72845586 -2.828125 20.91015625 C-3.941875 20.41515625 -5.055625 19.92015625 -6.203125 19.41015625 C-9.16634321 18.18399699 -11.68240124 17.38678106 -14.828125 16.91015625 C-14.28213031 12.85285089 -12.18933972 10.7831099 -9.453125 7.84765625 C-8.66164063 6.99042969 -7.87015625 6.13320313 -7.0546875 5.25 C-6.31992187 4.47785156 -5.58515625 3.70570313 -4.828125 2.91015625 C-4.32023437 2.29269531 -3.81234375 1.67523438 -3.2890625 1.0390625 C-1.828125 -0.08984375 -1.828125 -0.08984375 0 0 Z " fill="#988AE7" transform="translate(331.828125,363.08984375)"/>
<path d="M0 0 C0 5.94 0 11.88 0 18 C-0.33 18 -0.66 18 -1 18 C-1 14.7 -1 11.4 -1 8 C-14.71676089 13.54014628 -26.92856189 20.07364368 -38.1328125 29.8828125 C-40 31 -40 31 -42.0546875 30.9296875 C-44.51964636 29.75165495 -45.53587413 28.26939509 -47 26 C-15.55147059 0 -15.55147059 0 0 0 Z " fill="#6D8CCE" transform="translate(239,360)"/>
<path d="M0 0 C0.66 0 1.32 0 2 0 C2.09552526 3.93018231 2.16707834 7.58555397 -0.42138672 10.72265625 C-2.36107181 12.27980243 -4.34762481 13.65123032 -6.4375 15 C-7.90758789 16.02094867 -9.37504074 17.04570198 -10.83984375 18.07421875 C-11.5551123 18.56841309 -12.27038086 19.06260742 -13.00732422 19.57177734 C-17.32997758 22.66997903 -21.11782105 26.38031714 -25 30 C-26.5364235 31.36011261 -28.07774754 32.71471912 -29.625 34.0625 C-30.27726563 34.63097656 -30.92953125 35.19945312 -31.6015625 35.78515625 C-32.06304687 36.18605469 -32.52453125 36.58695312 -33 37 C-36.32635882 35.47427344 -37.95563002 34.06655496 -40 31 C-36.20575426 22.19487538 -28.57439752 16.25889459 -19.93945312 12.73168945 C-10.03585657 9 -10.03585657 9 -6 9 C-5.67 8.01 -5.34 7.02 -5 6 C-4.34 6 -3.68 6 -3 6 C-2.690625 5.195625 -2.38125 4.39125 -2.0625 3.5625 C-1 1 -1 1 0 0 Z " fill="#ABA3E6" transform="translate(215,338)"/>
<path d="M0 0 C0.33694303 7.28795302 0.03499245 14.31650454 -1.1875 21.5 C-1.28844971 22.16966797 -1.38939941 22.83933594 -1.4934082 23.52929688 C-2.40446865 28.40958291 -4.26183077 30.81857938 -8 34 C-10.62104608 31.45384095 -13.01791577 28.97772634 -15.3125 26.125 C-18.43782939 22.27844075 -22.21413997 19.17523745 -26 16 C-22.80331012 13.3513141 -19.60513403 11.06007659 -16 9 C-15.01 11.31 -14.02 13.62 -13 16 C-11.00045254 16.04254356 -8.99958364 16.04080783 -7 16 C-5.61091361 14.82889816 -5.61091361 14.82889816 -5.75 11.5625 C-5.87375 9.7990625 -5.87375 9.7990625 -6 8 C-6.99 7.34 -7.98 6.68 -9 6 C-8 3 -8 3 -5.0625 1.3125 C-2 0 -2 0 0 0 Z " fill="#1E6EB0" transform="translate(237,391)"/>
<path d="M0 0 C1.95679688 0.13535156 1.95679688 0.13535156 3.953125 0.2734375 C7.26318208 0.57992427 10.48206033 1.02621602 13.75 1.625 C13.19054687 1.89570313 12.63109375 2.16640625 12.0546875 2.4453125 C9.59609619 3.70377788 7.24198344 5.07686042 4.875 6.5 C3.98941406 7.02980469 3.10382813 7.55960937 2.19140625 8.10546875 C-0.38383899 9.66129651 -0.38383899 9.66129651 -3.1875 11.8125 C-7.61454302 14.43258669 -12.28356065 15.41243367 -17.25 16.625 C-18.466875 16.975625 -19.68375 17.32625 -20.9375 17.6875 C-24.6911833 18.7498632 -28.46160303 19.69451653 -32.25 20.625 C-32.25 19.965 -32.25 19.305 -32.25 18.625 C-11.36156577 -0.82427046 -11.36156577 -0.82427046 0 0 Z M-35.25 21.625 C-34.59 21.955 -33.93 22.285 -33.25 22.625 C-34.24 23.615 -35.23 24.605 -36.25 25.625 C-36.91 25.295 -37.57 24.965 -38.25 24.625 C-37.26 23.635 -36.27 22.645 -35.25 21.625 Z " fill="#6B74DD" transform="translate(132.25,379.375)"/>
<path d="M0 0 C1.21236328 0.01353516 1.21236328 0.01353516 2.44921875 0.02734375 C3.37154297 0.04474609 3.37154297 0.04474609 4.3125 0.0625 C4.3125 3.0625 4.3125 3.0625 2.5 5 C1.778125 5.680625 1.05625 6.36125 0.3125 7.0625 C-0.10644531 7.74054688 -0.52539062 8.41859375 -0.95703125 9.1171875 C-3.31655685 11.76965646 -5.08445961 11.81199242 -8.5625 12.25 C-9.59117187 12.38792969 -10.61984375 12.52585937 -11.6796875 12.66796875 C-13.16855469 12.86326172 -13.16855469 12.86326172 -14.6875 13.0625 C-17.86127294 13.61343685 -20.70243262 14.3588438 -23.6875 15.5625 C-26.66878871 16.72000793 -29.51438956 17.56670149 -32.6875 18.0625 C-33.29326923 10.1875 -33.29326923 10.1875 -31.375 6.625 C-27.09599668 4.13720737 -22.53414475 3.77223294 -17.6875 3.0625 C-15.85173908 2.7211395 -14.01815856 2.36774226 -12.1875 2 C-11.3934375 1.84402344 -10.599375 1.68804687 -9.78125 1.52734375 C-2.72396965 -0.03947782 -2.72396965 -0.03947782 0 0 Z " fill="#A793ED" transform="translate(271.6875,351.9375)"/>
<path d="M0 0 C0 0.33 0 0.66 0 1 C-1.00546875 1.24105469 -2.0109375 1.48210937 -3.046875 1.73046875 C-7.24223493 2.93110065 -10.59646754 4.9763286 -14.25 7.3125 C-28.05633127 15.81588323 -43.49597089 22.32360841 -60 22 C-57.74895412 18.24825687 -56.31449229 16.43404712 -52.08984375 15.0390625 C-49.83138417 14.54774849 -47.56656982 14.08491727 -45.296875 13.6484375 C-41.03906459 12.81100086 -37.06756909 11.4845769 -33 10 C-32.13375 9.71125 -31.2675 9.4225 -30.375 9.125 C-27.59366112 7.80752369 -25.29630381 6.11256333 -22.8125 4.30859375 C-15.26275397 -1.14219272 -9.09601654 -2.34735911 0 0 Z " fill="#5C71D5" transform="translate(156,383)"/>
<path d="M0 0 C0 2.31 0 4.62 0 7 C-0.63808594 7.26554687 -1.27617187 7.53109375 -1.93359375 7.8046875 C-2.75988281 8.15789062 -3.58617187 8.51109375 -4.4375 8.875 C-5.26121094 9.22304688 -6.08492187 9.57109375 -6.93359375 9.9296875 C-9.15746715 10.8244937 -9.15746715 10.8244937 -10 13 C-8.68 13.66 -7.36 14.32 -6 15 C-5.875 18.375 -5.875 18.375 -6 22 C-8 24 -8 24 -10.9375 24.4375 C-14 24 -14 24 -15.8125 21.625 C-16.204375 20.75875 -16.59625 19.8925 -17 19 C-17.33 18.34 -17.66 17.68 -18 17 C-18.886875 17.845625 -19.77375 18.69125 -20.6875 19.5625 C-23.6008348 22.02603251 -23.6008348 22.02603251 -26.875 21.8125 C-27.57625 21.544375 -28.2775 21.27625 -29 21 C-29.33 20.01 -29.66 19.02 -30 18 C-22.97851697 11.21185931 -10.14634972 0 0 0 Z " fill="#3B7BBB" transform="translate(238,384)"/>
<path d="M0 0 C2.42640508 2.42640508 2.56926444 3.78745765 3.1875 7.125 C3.36667969 8.03507812 3.54585937 8.94515625 3.73046875 9.8828125 C4.08941359 14.03408762 4.02702258 16.91253262 3 21 C0.62182462 22.74547899 -1.09578219 23.71396686 -3.75 24.8125 C-10.32700989 27.88150715 -15.50182825 31.54487491 -20.87402344 36.4074707 C-23.27098113 38.57252699 -24.89124377 39.96374792 -28 41 C-28 41.66 -28 42.32 -28 43 C-29.53125 44.5078125 -29.53125 44.5078125 -31.5 46.125 C-32.1496875 46.66382813 -32.799375 47.20265625 -33.46875 47.7578125 C-33.9740625 48.16773438 -34.479375 48.57765625 -35 49 C-36.32 48.34 -37.64 47.68 -39 47 C-35.15269846 42.29052165 -31.14460689 38.10936107 -26.5 34.1875 C-25.90485596 33.67469482 -25.30971191 33.16188965 -24.6965332 32.63354492 C-20.97792826 29.4846359 -17.145499 26.71494012 -13.06933594 24.05078125 C-7.57566144 20.68083578 -7.57566144 20.68083578 -3.97265625 15.5546875 C-3.76107354 13.30522924 -3.83498302 11.24779891 -4 9 C-2.94702557 5.84107671 -1.53151786 2.95364158 0 0 Z " fill="#9E9FE2" transform="translate(220,329)"/>
<path d="M0 0 C-0.78001894 5.14812503 -2.26216007 10.26216007 -6 14 C-7.175625 14.165 -8.35125 14.33 -9.5625 14.5 C-11.2640625 14.7475 -11.2640625 14.7475 -13 15 C-13.33 15.66 -13.66 16.32 -14 17 C-16.95820059 17.90591398 -19.96010437 18.40058396 -23 19 C-23 13.72 -23 8.44 -23 3 C-22.67 3.99 -22.34 4.98 -22 6 C-21.39671875 5.72285156 -20.7934375 5.44570313 -20.171875 5.16015625 C-19.37265625 4.79792969 -18.5734375 4.43570312 -17.75 4.0625 C-16.56664062 3.52302734 -16.56664062 3.52302734 -15.359375 2.97265625 C-13.23633278 2.09742858 -11.22702077 1.5286835 -9 1 C-8.175 0.62875 -7.35 0.2575 -6.5 -0.125 C-3.77903768 -1.07733681 -2.65453108 -0.98315966 0 0 Z " fill="#8C7FE7" transform="translate(261,376)"/>
<path d="M0 0 C4.52615993 3.67832017 8.39424999 7.41086363 12 12 C8.7 15.63 5.4 19.26 2 23 C-1.61985857 21.19007071 -3.20417115 20.03534588 -5.8125 17.125 C-6.43769531 16.44695312 -7.06289062 15.76890625 -7.70703125 15.0703125 C-9 13 -9 13 -8.953125 11.0390625 C-7.68512611 8.32637634 -5.96970943 6.44349589 -3.9375 4.25 C-3.20402344 3.45078125 -2.47054687 2.6515625 -1.71484375 1.828125 C-1.14894531 1.22484375 -0.58304688 0.6215625 0 0 Z " fill="#F7F1B3" transform="translate(165,425)"/>
<path d="M0 0 C0 1.98 0 3.96 0 6 C-1.01578125 6.47308594 -2.0315625 6.94617188 -3.078125 7.43359375 C-11.30193366 11.35503932 -18.51656878 15.49973285 -25.546875 21.3125 C-28 23 -28 23 -32 23 C-32.66 22.01 -33.32 21.02 -34 20 C-26.05245114 12.31656907 -11.57182844 0 0 0 Z " fill="#477FC0" transform="translate(238,378)"/>
<path d="M0 0 C1 2 1 2 0.25 4.50390625 C-4.29776672 15.63172294 -9.51494112 22.93721085 -20 29 C-19.12221286 23.56294255 -16.76580183 19.71306341 -13.9375 15.0625 C-13.48439453 14.27681641 -13.03128906 13.49113281 -12.56445312 12.68164062 C-9.19120265 7.1062128 -5.46916123 3.52684229 0 0 Z " fill="#3879BA" transform="translate(281,350)"/>
<path d="M0 0 C-0.43755615 0.35191406 -0.8751123 0.70382812 -1.32592773 1.06640625 C-13.38190694 10.77563598 -13.38190694 10.77563598 -25 21 C-26.32 20.34 -27.64 19.68 -29 19 C-25.96827179 11.80176262 -19.29599145 5.7488186 -12.48828125 2.13671875 C-3.86912666 -1.28970889 -3.86912666 -1.28970889 0 0 Z " fill="#B7A8EC" transform="translate(204,350)"/>
<path d="M0 0 C0 1.32 0 2.64 0 4 C-0.99257812 4.40089844 -1.98515625 4.80179687 -3.0078125 5.21484375 C-15.55587979 10.41406152 -26.97843854 16.69426436 -37 26 C-38.32 25.34 -39.64 24.68 -41 24 C-40.27167969 23.41992188 -39.54335937 22.83984375 -38.79296875 22.2421875 C-37.07680714 20.86445776 -35.3690159 19.47612412 -33.67578125 18.0703125 C-25.44259641 11.29324465 -11.35945651 0 0 0 Z " fill="#5E87C8" transform="translate(238,368)"/>
<path d="M0 0 C-1.62746062 3.99467606 -3.46755992 6.48653302 -7 9 C-11.4929186 9.34121968 -15.84627027 8.82423046 -20.3125 8.3125 C-21.53001953 8.19455078 -22.74753906 8.07660156 -24.00195312 7.95507812 C-27.0045826 7.66070269 -30.00243622 7.34159096 -33 7 C-30.3888163 5.6094739 -27.98206744 4.62971233 -25.1015625 3.96484375 C-24.01101562 3.71057617 -24.01101562 3.71057617 -22.8984375 3.45117188 C-21.77308594 3.1969043 -21.77308594 3.1969043 -20.625 2.9375 C-19.51125 2.67743164 -19.51125 2.67743164 -18.375 2.41210938 C-12.21501962 0.99183121 -6.35515619 -0.15131324 0 0 Z " fill="#203694" transform="translate(193,209)"/>
<path d="M0 0 C0.33 0 0.66 0 1 0 C1.061875 0.94875 1.12375 1.8975 1.1875 2.875 C1.455625 3.90625 1.72375 4.9375 2 6 C4.38119246 7.40257876 4.38119246 7.40257876 7 8 C9.8325479 9.41627395 12.36691729 11.24461153 15 13 C13.09119643 14.34456604 11.17264729 15.67530521 9.25 17 C8.18265625 17.7425 7.1153125 18.485 6.015625 19.25 C3 21 3 21 -1 21 C-1.10808032 13.90272572 -0.93854006 7.03905044 0 0 Z " fill="#595ECA" transform="translate(63,462)"/>
<path d="M0 0 C1.98782243 1.0673677 3.96506484 2.15445842 5.9375 3.25 C7.59072266 4.15492188 7.59072266 4.15492188 9.27734375 5.078125 C12 7 12 7 12.90625 8.84375 C13.02990435 11.68780015 12.83967959 14.41660863 12.5625 17.25 C12.46066406 18.32765625 12.35882813 19.4053125 12.25390625 20.515625 C12.17011719 21.33546875 12.08632813 22.1553125 12 23 C11.67 23 11.34 23 11 23 C10.67 20.03 10.34 17.06 10 14 C8.68 13.67 7.36 13.34 6 13 C5.38125 12.525625 4.7625 12.05125 4.125 11.5625 C1.5577261 9.6747986 -0.96132179 8.89779129 -4 8 C-4 4 -4 4 -2 1.75 C-1.01 0.88375 -1.01 0.88375 0 0 Z " fill="#A897E5" transform="translate(332,363)"/>
<path d="M0 0 C2 2 2 2 2.265625 3.875 C2.26046875 4.57625 2.2553125 5.2775 2.25 6 C2.25515625 6.70125 2.2603125 7.4025 2.265625 8.125 C2 10 2 10 0 12 C-3.4375 12.375 -3.4375 12.375 -7 12 C-9.42061048 9.89172636 -9.9127007 8.59654522 -10.375 5.4375 C-10 3 -10 3 -8.9375 1.1875 C-5.94449731 -0.646921 -3.42183337 -0.31107576 0 0 Z " fill="#F9F9FD" transform="translate(323,390)"/>
<path d="M0 0 C0.33 0 0.66 0 1 0 C0.22095672 13.6332574 0.22095672 13.6332574 -2 20 C-5.96 18.68 -9.92 17.36 -14 16 C-13.319375 15.34 -12.63875 14.68 -11.9375 14 C-7.59555036 9.65805036 -3.40861352 5.11292028 0 0 Z " fill="#6E8DCE" transform="translate(246,303)"/>
<path d="M0 0 C1 1 1 1 1.25 4.375 C1 8 1 8 -0.125 10 C-2.98873147 11.52732345 -4.95300191 10.84278671 -8 10 C-10 8 -10 8 -10.125 4.375 C-10.08375 3.26125 -10.0425 2.1475 -10 1 C-6.42721532 -1.33605152 -4.06815321 -0.99443745 0 0 Z " fill="#F7F6FD" transform="translate(96,374)"/>
<path d="M0 0 C0.99 0.66 1.98 1.32 3 2 C-7.93181382 9.4113992 -21.10212842 17.66389065 -34 21 C-34.99 20.67 -35.98 20.34 -37 20 C-36.01902344 19.52691406 -35.03804688 19.05382812 -34.02734375 18.56640625 C-26.11249157 14.70333397 -18.43812347 10.63461095 -10.96264648 5.97094727 C-7.72076535 3.96162113 -4.56692456 2.34330248 -1 1 C-0.67 0.67 -0.34 0.34 0 0 Z " fill="#386EC1" transform="translate(309,378)"/>
<path d="M0 0 C2.31228769 2.15281958 2.92823265 3.49762857 3.375 6.625 C3.25125 7.40875 3.1275 8.1925 3 9 C-0.45029042 11.30019361 -1.94554358 11.43132515 -6 11 C-8.15502531 7.76746204 -8.46856135 6.74849077 -8 3 C-5.86922119 -0.25224135 -3.7535559 -0.65687228 0 0 Z " fill="#F9F7FD" transform="translate(281,304)"/>
<path d="M0 0 C3.0625 0.1875 3.0625 0.1875 5.0625 2.1875 C5.3125 5.6875 5.3125 5.6875 5.0625 9.1875 C3.0625 11.1875 3.0625 11.1875 0.125 11.625 C-2.9375 11.1875 -2.9375 11.1875 -4.9375 9 C-5.9375 6.1875 -5.9375 6.1875 -5.1875 3.4375 C-3.39828431 0.21691176 -3.39828431 0.21691176 0 0 Z " fill="#F3F6FA" transform="translate(226.9375,396.8125)"/>
<path d="M0 0 C1.875 1.0625 1.875 1.0625 3 3 C2.6875 6.6875 2.6875 6.6875 2 10 C-4.42548263 11.33359073 -4.42548263 11.33359073 -6.9375 9.875 C-8.36066991 7.36352369 -8.42674516 5.84496772 -8 3 C-5.85607122 -0.27231235 -3.76836426 -0.56525464 0 0 Z " fill="#F5F6FA" transform="translate(261,234)"/>
<path d="M0 0 C0 3 0 3 -2.125 5.453125 C-3.07459235 6.39431834 -4.03352924 7.32614677 -5 8.25 C-5.50039795 8.73509033 -6.0007959 9.22018066 -6.51635742 9.7199707 C-7.52954191 10.69653601 -8.54669444 11.66900207 -9.56787109 12.63720703 C-10.82690944 13.83528955 -12.06556752 15.05471284 -13.30078125 16.27734375 C-18.10484481 20.83887207 -18.10484481 20.83887207 -22.125 21.5625 C-25.20892668 20.95912304 -28.0641424 20.11842194 -31 19 C-31 18.67 -31 18.34 -31 18 C-30.0925 17.71125 -29.185 17.4225 -28.25 17.125 C-25.14951615 16.14545173 -25.14951615 16.14545173 -23 14.9375 C-21 14 -21 14 -18.0625 13.5625 C-12.5113954 12.54290936 -9.37091748 9.60105093 -5.8125 5.375 C-2.19074334 1.09537167 -2.19074334 1.09537167 0 0 Z " fill="#7D77E0" transform="translate(349,384)"/>
<path d="M0 0 C3.67033927 3.27708863 5.69281189 6.71522208 8 11 C4 13.66666667 0 16.33333333 -4 19 C-3.52202924 16.58309124 -3.0426678 14.16647237 -2.5625 11.75 C-2.42779297 11.06808594 -2.29308594 10.38617188 -2.15429688 9.68359375 C-1.50779289 6.43530542 -0.84997305 3.20184022 0 0 Z " fill="#3D7BBC" transform="translate(300,309)"/>
<path d="M0 0 C3 0.25 3 0.25 5 2.25 C5.3125 5.25 5.3125 5.25 5 8.25 C1.77626323 10.39915785 0.73296326 10.63286803 -3 10.25 C-5 8.25 -5 8.25 -5.25 5.25 C-4.90584825 1.120179 -4.129821 0.34415175 0 0 Z " fill="#F8FAFC" transform="translate(144,415.75)"/>
<path d="M0 0 C5.2 1.3 5.2 1.3 7 4 C7.64757709 10.04405286 7.64757709 10.04405286 5.6875 12.9375 C4 14 4 14 1 14 C0.67 9.38 0.34 4.76 0 0 Z " fill="#FCFCFE" transform="translate(251,270)"/>
<path d="M0 0 C1.134375 0.020625 2.26875 0.04125 3.4375 0.0625 C2.96699219 0.78695313 2.49648437 1.51140625 2.01171875 2.2578125 C-2.63070817 9.46260298 -2.63070817 9.46260298 -6.5625 17.0625 C-7.9207089 13.32289816 -7.19178896 10.65720752 -6.1875 6.875 C-5.91164063 5.80894531 -5.63578125 4.74289062 -5.3515625 3.64453125 C-4.26064543 0.07474817 -4.26064543 0.07474817 0 0 Z " fill="#7370DF" transform="translate(74.5625,424.9375)"/>
<path d="M0 0 C3.5 0.125 3.5 0.125 4.5 1.125 C4.21269945 3.46444736 3.88063221 5.7989143 3.5 8.125 C1.19 7.795 -1.12 7.465 -3.5 7.125 C-3.88133299 5.1335944 -4.21325582 3.13220923 -4.5 1.125 C-3.5 0.125 -3.5 0.125 0 0 Z " fill="#FBFAFE" transform="translate(165.5,349.875)"/>
<path d="M0 0 C2.5625 0.1875 2.5625 0.1875 4.5625 2.1875 C4.1875 4.8125 4.1875 4.8125 3.5625 7.1875 C1.5710944 7.56883299 -0.43029077 7.90075582 -2.4375 8.1875 C-3.4375 7.1875 -3.4375 7.1875 -3.5625 4.1875 C-3.39891479 0.26145498 -3.39891479 0.26145498 0 0 Z " fill="#F2F1FB" transform="translate(191.4375,445.8125)"/>
<path d="M0 0 C1.99954746 -0.04254356 4.00041636 -0.04080783 6 0 C7 1 7 1 7.25 3.4375 C7.1675 4.283125 7.085 5.12875 7 6 C4 8 4 8 1.8125 7.625 C1.214375 7.41875 0.61625 7.2125 0 7 C-1.125 2.25 -1.125 2.25 0 0 Z " fill="#F6EFB4" transform="translate(121,346)"/>
<path d="M0 0 C0.33 0 0.66 0 1 0 C0.85904936 1.6254308 0.71207913 3.25034051 0.5625 4.875 C0.48128906 5.77992188 0.40007812 6.68484375 0.31640625 7.6171875 C0 10 0 10 -1 12 C-4 12 -7 12 -10 12 C-9.52949219 11.55269531 -9.05898437 11.10539062 -8.57421875 10.64453125 C-5.1275331 7.29774953 -2.32031363 4.25390832 0 0 Z " fill="#5B81C7" transform="translate(246,303)"/>
<path d="M0 0 C1.67542976 0.28604898 3.34385343 0.61781233 5 1 C5.625 2.875 5.625 2.875 6 5 C5.34 5.66 4.68 6.32 4 7 C1.375 6.625 1.375 6.625 -1 6 C-1.042721 4.33388095 -1.04063832 2.66617115 -1 1 C-0.67 0.67 -0.34 0.34 0 0 Z " fill="#F6F4FD" transform="translate(266,402)"/>
<path d="M0 0 C2.52588702 2.36292656 3.88820837 3.66462511 5 7 C0.25 10 0.25 10 -2 10 C-1.34 6.7 -0.68 3.4 0 0 Z " fill="#517FC3" transform="translate(300,309)"/>
<path d="M0 0 C-2.56538479 2.56538479 -5.06045896 3.37357879 -8.4375 4.6875 C-9.59121094 5.14511719 -10.74492187 5.60273438 -11.93359375 6.07421875 C-15 7 -15 7 -18 6 C-15.56781941 4.80036357 -13.13029422 3.61515562 -10.6875 2.4375 C-9.99720703 2.09525391 -9.30691406 1.75300781 -8.59570312 1.40039062 C-3.33984375 -1.11328125 -3.33984375 -1.11328125 0 0 Z " fill="#4F70CE" transform="translate(290,392)"/>
<path d="M0 0 C0.556875 0.391875 1.11375 0.78375 1.6875 1.1875 C-1.28082339 3.71607178 -3.47551525 4.61195229 -7.3125 5.1875 C-8.64792939 5.51233418 -9.98211551 5.8425855 -11.3125 6.1875 C-4.18328652 -1.46980337 -4.18328652 -1.46980337 0 0 Z " fill="#2A6DB8" transform="translate(315.3125,374.8125)"/>
<path d="M0 0 C-2.12121657 2.33333823 -4.01594365 3.9148886 -7 5 C-9.25 4.625 -9.25 4.625 -11 4 C-4.45754717 -1.33726415 -4.45754717 -1.33726415 0 0 Z " fill="#436EC7" transform="translate(299,387)"/>
<path d="M0 0 C0 3 0 3 -2.40625 5.69921875 C-3.4299968 6.70302243 -4.4616054 7.69885649 -5.5 8.6875 C-6.02464844 9.19861328 -6.54929687 9.70972656 -7.08984375 10.23632812 C-8.38660904 11.49772708 -9.69246117 12.74977212 -11 14 C-11 11 -11 11 -9.609375 9.31640625 C-8.99578125 8.73761719 -8.3821875 8.15882813 -7.75 7.5625 C-7.11449219 6.9540625 -6.47898437 6.345625 -5.82421875 5.71875 C-4.92123047 4.86796875 -4.92123047 4.86796875 -4 4 C-3.195625 3.195625 -2.39125 2.39125 -1.5625 1.5625 C-1.046875 1.046875 -0.53125 0.53125 0 0 Z " fill="#6F79C7" transform="translate(349,384)"/>
</svg>
